<svg width="24" height="24" viewBox="0 0 24 24" fill="none" xmlns="http://www.w3.org/2000/svg">
    <path d="M22.9091 5.33382H16.7269V1.33382C16.7269 0.9802 16.612 0.641061 16.4074 0.391013C16.2028 0.140964 15.9253 0.000488281 15.636 0.000488281H8.364C8.07467 0.000488281 7.7972 0.140964 7.59261 0.391013C7.38803 0.641061 7.27309 0.9802 7.27309 1.33382V10.6672H1.09091C0.801582 10.6672 0.524105 10.8076 0.31952 11.0577C0.114935 11.3077 0 11.6469 0 12.0005V22.6672C0 23.0208 0.114935 23.3599 0.31952 23.61C0.524105 23.86 0.801582 24.0005 1.09091 24.0005H22.9091C23.1984 24.0005 23.4759 23.86 23.6805 23.61C23.8851 23.3599 24 23.0208 24 22.6672V6.66716C24 6.31353 23.8851 5.97439 23.6805 5.72435C23.4759 5.4743 23.1984 5.33382 22.9091 5.33382ZM7.27309 21.3338H2.18182V13.3338H7.27309V21.3338ZM14.5451 21.3338H9.45491V2.66716H14.5451V21.3338ZM21.8182 21.3338H16.7269V8.00049H21.8182V21.3338Z" fill="#8CCD01"/>
    </svg>
    