<svg width="16" height="16" viewBox="0 0 16 16" fill="none" xmlns="http://www.w3.org/2000/svg">
    <path d="M15.2727 3.55556H11.1513V0.888889C11.1513 0.653141 11.0747 0.427048 10.9383 0.260349C10.8019 0.0936505 10.6169 0 10.424 0H5.576C5.38312 0 5.19813 0.0936505 5.06174 0.260349C4.92535 0.427048 4.84873 0.653141 4.84873 0.888889V7.11111H0.727273C0.534388 7.11111 0.349403 7.20476 0.213013 7.37146C0.0766231 7.53816 0 7.76425 0 8V15.1111C0 15.3469 0.0766231 15.573 0.213013 15.7397C0.349403 15.9064 0.534388 16 0.727273 16H15.2727C15.4656 16 15.6506 15.9064 15.787 15.7397C15.9234 15.573 16 15.3469 16 15.1111V4.44444C16 4.2087 15.9234 3.9826 15.787 3.81591C15.6506 3.64921 15.4656 3.55556 15.2727 3.55556ZM4.84873 14.2222H1.45455V8.88889H4.84873V14.2222ZM9.69673 14.2222H6.30327V1.77778H9.69673V14.2222ZM14.5455 14.2222H11.1513V5.33333H14.5455V14.2222Z" fill="#646464"/>
    </svg>
    